<svg width="14" height="18" viewBox="0 0 14 18" fill="none"
  xmlns="http://www.w3.org/2000/svg">
  <path d="M9.00017 12.5592C8.99906 12.5854 9.00333 12.6116 9.01272 12.6362C9.02212 12.6608 9.03643 12.6831 9.05479 12.7019C9.07315 12.7208 9.09516 12.7356 9.11947 12.7456C9.14379 12.7556 9.16989 12.7605 9.19617 12.7601H9.86713C9.97936 12.7601 10.0688 12.6681 10.0835 12.5567C10.1567 12.0232 10.5226 11.6345 11.1749 11.6345C11.7328 11.6345 12.2435 11.9134 12.2435 12.5844C12.2435 13.1008 11.9394 13.3383 11.4587 13.6994C10.9114 14.0971 10.4779 14.5615 10.5088 15.3154L10.5112 15.4919C10.5121 15.5452 10.5339 15.5961 10.5719 15.6335C10.61 15.671 10.6612 15.6919 10.7146 15.6919H11.3741C11.4281 15.6919 11.4798 15.6705 11.5179 15.6324C11.556 15.5942 11.5775 15.5425 11.5775 15.4886V15.4032C11.5775 14.8193 11.7995 14.6493 12.3989 14.1947C12.8942 13.8181 13.4106 13.4001 13.4106 12.5226C13.4106 11.2937 12.3728 10.7 11.2367 10.7C10.2063 10.7 9.07743 11.1798 9.00017 12.5592V12.5592ZM10.2664 17.2461C10.2664 17.6796 10.6121 18 11.0879 18C11.5831 18 11.9239 17.6796 11.9239 17.2461C11.9239 16.7972 11.5823 16.4816 11.087 16.4816C10.6121 16.4816 10.2664 16.7972 10.2664 17.2461Z" fill="#404040"/>
  <path d="M14 5L0 0V18H2V11.13L14 5Z" fill="#404040"/>
</svg>
