<svg width="24" height="24" viewBox="0 0 24 24" fill="none" xmlns="http://www.w3.org/2000/svg">
<circle cx="12" cy="12" r="8.72727" fill="#404040"/>
<path d="M10.9092 1.09091C10.9092 0.488416 11.3976 0 12.0001 0V0C12.6026 0 13.091 0.488416 13.091 1.09091V7.63636C13.091 8.23885 12.6026 8.72727 12.0001 8.72727V8.72727C11.3976 8.72727 10.9092 8.23885 10.9092 7.63636V1.09091Z" fill="#404040"/>
<rect x="10.9092" y="15.2727" width="2.18182" height="8.72727" rx="1.09091" fill="#404040"/>
<path d="M16.3636 13.0909C15.7611 13.0909 15.2727 12.6025 15.2727 12V12C15.2727 11.3975 15.7611 10.9091 16.3636 10.9091H22.9091C23.5116 10.9091 24 11.3975 24 12V12C24 12.6025 23.5116 13.0909 22.9091 13.0909H16.3636Z" fill="#404040"/>
<path d="M16.4958 9.12435C16.0698 9.55038 15.3791 9.55037 14.9531 9.12435V9.12435C14.527 8.69832 14.527 8.0076 14.9531 7.58157L19.5814 2.95324C20.0074 2.52721 20.6981 2.52721 21.1242 2.95324V2.95324C21.5502 3.37927 21.5502 4.06999 21.1242 4.49602L16.4958 9.12435Z" fill="#404040"/>
<path d="M9.12438 7.58159C9.55041 8.00762 9.55041 8.69835 9.12438 9.12437V9.12437C8.69835 9.5504 8.00763 9.5504 7.5816 9.12437L2.95327 4.49604C2.52724 4.07001 2.52724 3.37929 2.95327 2.95326V2.95326C3.3793 2.52724 4.07002 2.52724 4.49605 2.95326L9.12438 7.58159Z" fill="#404040"/>
<path d="M4.49583 21.1243C4.0698 21.5504 3.37908 21.5504 2.95305 21.1243V21.1243C2.52703 20.6983 2.52703 20.0076 2.95305 19.5816L7.58138 14.9532C8.00741 14.5272 8.69813 14.5272 9.12416 14.9532V14.9532C9.55019 15.3793 9.55019 16.07 9.12416 16.496L4.49583 21.1243Z" fill="#404040"/>
<path d="M21.1244 19.5815C21.5504 20.0075 21.5504 20.6983 21.1244 21.1243V21.1243C20.6983 21.5503 20.0076 21.5503 19.5816 21.1243L14.9533 16.496C14.5272 16.0699 14.5272 15.3792 14.9533 14.9532V14.9532C15.3793 14.5272 16.07 14.5272 16.496 14.9532L21.1244 19.5815Z" fill="#404040"/>
<rect y="13.0909" width="2.18182" height="8.72727" rx="1.09091" transform="rotate(-90 0 13.0909)" fill="#404040"/>
</svg>
